<svg width="105" height="95" viewBox="0 0 105 95" fill="none" xmlns="http://www.w3.org/2000/svg">
<rect x="0.841465" y="31.3958" width="53.5" height="71.5" transform="rotate(-29.0842 0.841465 31.3958)" fill="#EFEFEF" stroke="#9A9898" stroke-width="0.5"/>
<rect x="2.8335" y="33.4346" width="18" height="15" transform="rotate(-29.0842 2.8335 33.4346)" fill="#B1B3B4" fill-opacity="0.18"/>
<path d="M12.4874 42.5698C12.1448 42.7603 11.7326 42.7928 11.2508 42.6671C10.7759 42.5376 10.2812 42.2407 9.76657 41.7763C9.25583 41.3189 8.77685 40.6882 8.32965 39.8842C8.2752 39.7863 8.21882 39.6849 8.16049 39.5801C8.10915 39.4713 8.05586 39.359 8.00063 39.2433C7.93461 39.2892 7.86664 39.3316 7.79673 39.3704C7.73381 39.4054 7.67438 39.4385 7.61845 39.4696C7.21296 39.6952 6.88667 39.808 6.63957 39.8081C6.39947 39.8044 6.23275 39.7186 6.13942 39.5508C6.04609 39.383 6.02344 39.153 6.07146 38.8608C6.12648 38.5648 6.24247 38.2302 6.41944 37.8571C6.59641 37.4841 6.83049 37.1067 7.12168 36.725C6.95971 36.0553 6.82918 35.3269 6.73009 34.5398C6.631 33.7527 6.57928 32.9027 6.57492 31.9897C6.5733 31.8716 6.62144 31.7853 6.71931 31.7309C6.78223 31.6959 6.84983 31.6857 6.9221 31.7005C6.99437 31.7152 7.04995 31.7575 7.08884 31.8274C7.10828 31.8624 7.12307 31.9136 7.13321 31.9812C7.1395 32.1242 7.14774 32.2707 7.15791 32.4206C7.1642 32.5636 7.17049 32.7066 7.17678 32.8496C7.26999 32.7702 7.34455 32.715 7.40048 32.6839C7.45641 32.6528 7.52089 32.6124 7.5939 32.5626C7.66692 32.5128 7.77799 32.4328 7.92712 32.3223C8.1314 32.1629 8.32558 32.0183 8.50967 31.8885C8.70075 31.7547 8.88368 31.6392 9.05846 31.542C9.72263 31.1726 10.2762 31.0157 10.7191 31.0714C11.1621 31.1272 11.4827 31.3333 11.681 31.6898C11.9182 32.1163 11.9725 32.6994 11.8439 33.4392C11.7347 34.0493 11.5303 34.6939 11.2307 35.3732C10.9381 36.0486 10.548 36.705 10.0603 37.3424C9.57579 37.9689 8.99874 38.5279 8.3292 39.0193C8.41401 39.2376 8.50192 39.4451 8.59293 39.6416C8.68395 39.8381 8.77612 40.0203 8.86945 40.1881C9.20777 40.7963 9.55573 41.2573 9.91333 41.5711C10.2818 41.8879 10.6331 42.0998 10.9673 42.2069C11.3085 42.3101 11.6092 42.3488 11.8695 42.323C12.1368 42.2933 12.3368 42.2416 12.4697 42.1677C12.5745 42.1093 12.6347 42.053 12.6502 41.9986C12.6588 41.9481 12.6805 41.9131 12.7155 41.8936C12.7924 41.8509 12.86 41.8819 12.9183 41.9868C12.965 42.0707 12.9576 42.148 12.8963 42.2187C12.7845 42.3633 12.6482 42.4803 12.4874 42.5698ZM8.25566 38.8131C8.90808 38.2579 9.44781 37.6648 9.87485 37.0336C10.3089 36.3986 10.6477 35.757 10.8914 35.1088C11.135 34.4606 11.2955 33.8358 11.3729 33.2343C11.4225 32.8955 11.4332 32.6104 11.4051 32.3788C11.3732 32.1403 11.3163 31.9476 11.2347 31.8008C11.1024 31.5631 10.9136 31.421 10.668 31.3745C10.4255 31.3171 10.154 31.3309 9.8533 31.4157C9.55263 31.5006 9.24849 31.6285 8.94087 31.7997C8.61928 31.9785 8.31673 32.1834 8.03323 32.4144C7.74974 32.6453 7.51092 32.8742 7.31678 33.1012C7.27951 33.1494 7.2395 33.1763 7.19677 33.1817C7.2429 33.7419 7.2968 34.2749 7.35844 34.7808C7.42319 35.2757 7.4957 35.7434 7.57596 36.184C7.82214 35.9189 8.09008 35.66 8.37978 35.4073C8.66948 35.1546 8.98523 34.9241 9.32701 34.7156L9.36896 34.6923C9.43887 34.6534 9.4816 34.648 9.49716 34.6759C9.50883 34.6969 9.48748 34.7408 9.43312 34.8077C9.38576 34.8706 9.28711 34.9484 9.1372 35.0409C8.82338 35.2338 8.54259 35.4449 8.29484 35.6743C8.04319 35.8966 7.81525 36.1287 7.61102 36.3704C7.70374 36.8498 7.80381 37.2931 7.91125 37.7002C8.02569 38.1034 8.14049 38.4744 8.25566 38.8131ZM7.57874 39.2995C7.63467 39.2684 7.6906 39.2372 7.74653 39.2061C7.80556 39.1641 7.86459 39.1222 7.92362 39.0802C7.78437 38.764 7.65327 38.4295 7.53032 38.0768C7.40347 37.7171 7.28828 37.3372 7.18473 36.9371C6.86561 37.4167 6.65295 37.8737 6.54672 38.3081C6.4366 38.7355 6.44182 39.0576 6.56237 39.2743C6.63625 39.4072 6.75945 39.4805 6.93196 39.4944C7.10447 39.5083 7.32006 39.4433 7.57874 39.2995ZM13.449 38.8629C13.3231 38.9329 13.2031 38.931 13.0888 38.8573C12.9707 38.7765 12.8708 38.6627 12.7891 38.5159C12.6841 38.3272 12.5931 38.0894 12.516 37.8028C12.4459 37.5122 12.3929 37.203 12.357 36.8751C12.3172 36.5402 12.305 36.222 12.3204 35.9205C12.3389 35.6081 12.3896 35.3373 12.4727 35.108C12.5518 34.8718 12.6683 34.7109 12.8221 34.6253C12.9619 34.5476 13.1157 34.5444 13.2836 34.6158C13.4546 34.6763 13.5829 34.7834 13.6684 34.9373C13.719 35.0281 13.7478 35.1128 13.7548 35.1913C13.7579 35.2628 13.742 35.3082 13.7071 35.3277C13.6791 35.3432 13.643 35.3359 13.5987 35.3056C13.4393 35.1837 13.2982 35.1111 13.1755 35.0879C13.0597 35.0607 12.9598 35.0705 12.8759 35.1172C12.7361 35.1949 12.641 35.3531 12.5906 35.5917C12.5433 35.8194 12.5341 36.0579 12.563 36.3073C12.5787 36.5 12.6153 36.7222 12.6729 36.974C12.7337 37.2148 12.8014 37.4518 12.8761 37.6848C12.9539 37.907 13.0298 38.0846 13.1037 38.2174C13.2359 38.4551 13.3579 38.5428 13.4698 38.4806C13.6096 38.4028 13.7023 38.1499 13.7479 37.7217C13.7843 37.4085 13.7837 37.0701 13.7462 36.7065C13.7158 36.339 13.6857 36.0216 13.656 35.7543C13.6521 35.6649 13.6653 35.5981 13.6955 35.5538C13.7258 35.5095 13.7584 35.4776 13.7934 35.4582C13.8773 35.4115 13.9492 35.4173 14.009 35.4756C14.0759 35.5299 14.1229 35.5816 14.1501 35.6305C14.2512 35.8123 14.3252 35.9863 14.3719 36.1526C14.4147 36.3118 14.4925 36.4928 14.6052 36.6956C14.6869 36.8424 14.7732 36.9729 14.8642 37.0871C14.9583 37.1904 15.0368 37.2245 15.0997 37.1895C15.1766 37.1467 15.22 36.9944 15.23 36.7325C15.2269 36.6611 15.2532 36.6098 15.3092 36.5787C15.3721 36.5437 15.4211 36.5576 15.4561 36.6205C15.5066 36.7114 15.4981 36.8443 15.4306 37.0192C15.3592 37.187 15.2606 37.306 15.1348 37.376C14.967 37.4693 14.8092 37.4655 14.6615 37.3646C14.4144 37.2 14.2402 37.0268 14.1391 36.845C14.0341 36.6562 13.9587 36.5288 13.9128 36.4628C13.9245 36.5662 13.932 36.7359 13.9352 36.9722C13.9345 37.2014 13.9222 37.4508 13.8983 37.7205C13.8705 37.9831 13.8201 38.2217 13.7471 38.4362C13.6742 38.6507 13.5748 38.7929 13.449 38.8629ZM17.7291 38.789C17.6592 38.8279 17.5605 38.8233 17.4331 38.7752C17.3165 38.7302 17.184 38.6483 17.0355 38.5295C16.7906 38.3361 16.5694 38.1113 16.3719 37.855C16.1783 37.6057 16.0038 37.3412 15.8482 37.0615C15.6771 36.7539 15.5309 36.4416 15.4095 36.1247C15.2881 35.8077 15.1858 35.5167 15.1025 35.2518C15.0441 35.0646 14.9869 34.863 14.9308 34.647C14.8748 34.431 14.8366 34.2554 14.8163 34.1202C14.7783 34.1505 14.7255 34.212 14.6579 34.3045C14.5904 34.397 14.5193 34.4914 14.4448 34.5878C14.3772 34.6803 14.3085 34.746 14.2386 34.7849C14.1337 34.8432 14.0482 34.813 13.9821 34.6941C13.9471 34.6312 13.937 34.5636 13.9517 34.4913C13.9734 34.4152 14.0115 34.3436 14.0658 34.2768C14.1706 34.1361 14.2992 34.0051 14.4514 33.8838C14.5998 33.7555 14.6922 33.6583 14.7287 33.5923L14.6163 32.7485C14.6054 32.663 14.5921 32.5239 14.5765 32.3312C14.5639 32.1277 14.5561 31.9078 14.5528 31.6716C14.5566 31.4315 14.5666 31.2108 14.5828 31.0095C14.5975 30.8549 14.6223 30.7267 14.6572 30.6248C14.6882 30.516 14.7457 30.4383 14.8296 30.3916C14.9554 30.3216 15.0456 30.3356 15.1 30.4335C15.1311 30.4894 15.1533 30.5869 15.1666 30.726C15.1869 30.8612 15.1881 31.0527 15.1704 31.3006C15.1542 31.5842 15.1345 31.8698 15.1114 32.1573C15.0913 32.4339 15.0946 32.7113 15.1211 32.9895C15.1297 33.0213 15.1375 33.0765 15.1445 33.155C15.1547 33.2226 15.1566 33.2673 15.1504 33.289L15.3427 33.1409C15.3947 33.1028 15.4557 33.0643 15.5256 33.0254C15.5916 32.9795 15.6666 32.9333 15.7505 32.8866C15.8693 32.8205 15.9851 32.7653 16.0977 32.7209C16.2135 32.6657 16.3141 32.6326 16.3995 32.6217C16.4423 32.6162 16.4835 32.6162 16.5231 32.6216C16.5658 32.6162 16.5911 32.6204 16.5989 32.6344C16.6144 32.6624 16.5313 32.7269 16.3495 32.828C16.2447 32.8863 16.1041 32.9874 15.9278 33.1313C15.7584 33.2712 15.5728 33.4477 15.3709 33.6607C15.2715 33.7618 15.2183 33.8554 15.2114 33.9417C15.2044 34.0279 15.2321 34.2094 15.2944 34.486C15.3995 34.9218 15.5179 35.332 15.6494 35.7166C15.777 36.0942 15.9225 36.4709 16.0859 36.8469C16.1178 36.9207 16.1516 36.998 16.1874 37.0788C16.2302 37.1557 16.2768 37.2396 16.3274 37.3305C16.4596 37.5682 16.6186 37.8047 16.8045 38.0401C16.9973 38.2715 17.1916 38.4564 17.3875 38.5946C17.4318 38.6249 17.4742 38.6516 17.5146 38.6749C17.562 38.6943 17.6071 38.7013 17.6498 38.6958C17.7104 38.6896 17.7485 38.7005 17.7641 38.7284C17.7757 38.7494 17.7641 38.7696 17.7291 38.789ZM19.4906 37.8093C19.4207 37.8482 19.322 37.8435 19.1945 37.7954C19.078 37.7504 18.9454 37.6685 18.797 37.5497C18.5521 37.3564 18.3309 37.1315 18.1334 36.8752C17.9398 36.6259 17.7652 36.3614 17.6097 36.0817C17.4386 35.7741 17.2923 35.4618 17.1709 35.1449C17.0496 34.8279 16.9472 34.537 16.864 34.272C16.8056 34.0848 16.7484 33.8832 16.6923 33.6672C16.6363 33.4512 16.5981 33.2756 16.5778 33.1404C16.5398 33.1708 16.4869 33.2322 16.4194 33.3247C16.3518 33.4172 16.2808 33.5116 16.2062 33.608C16.1387 33.7005 16.07 33.7662 16 33.8051C15.8952 33.8634 15.8097 33.8332 15.7436 33.7143C15.7086 33.6514 15.6984 33.5838 15.7132 33.5115C15.7349 33.4354 15.7729 33.3639 15.8273 33.297C15.9321 33.1563 16.0606 33.0253 16.2129 32.904C16.3612 32.7757 16.4536 32.6786 16.4901 32.6125L16.3778 31.7687C16.3669 31.6832 16.3536 31.5441 16.338 31.3515C16.3254 31.1479 16.3175 30.928 16.3143 30.6918C16.3181 30.4517 16.328 30.231 16.3443 30.0297C16.3589 29.8751 16.3837 29.7469 16.4187 29.6451C16.4497 29.5363 16.5071 29.4585 16.591 29.4119C16.7169 29.3419 16.807 29.3558 16.8615 29.4537C16.8926 29.5096 16.9148 29.6071 16.9281 29.7462C16.9483 29.8814 16.9496 30.0729 16.9318 30.3208C16.9157 30.6044 16.896 30.89 16.8728 31.1775C16.8528 31.4541 16.856 31.7315 16.8826 32.0097C16.8912 32.0416 16.899 32.0967 16.906 32.1752C16.9161 32.2428 16.9181 32.2875 16.9119 32.3092L17.1041 32.1611C17.1562 32.123 17.2172 32.0845 17.2871 32.0456C17.3531 31.9997 17.428 31.9535 17.5119 31.9068C17.6308 31.8407 17.7465 31.7855 17.8592 31.7411C17.9749 31.6859 18.0755 31.6528 18.161 31.6419C18.2037 31.6364 18.2449 31.6364 18.2846 31.6418C18.3273 31.6364 18.3525 31.6406 18.3603 31.6546C18.3759 31.6826 18.2928 31.7471 18.111 31.8482C18.0061 31.9066 17.8655 32.0076 17.6892 32.1515C17.5199 32.2914 17.3343 32.4679 17.1324 32.6809C17.033 32.782 16.9798 32.8757 16.9728 32.9619C16.9659 33.0482 16.9936 33.2296 17.0559 33.5062C17.161 33.942 17.2793 34.3522 17.4108 34.7368C17.5385 35.1144 17.684 35.4912 17.8473 35.8672C17.8792 35.941 17.9131 36.0183 17.9489 36.099C17.9916 36.1759 18.0383 36.2598 18.0889 36.3507C18.2211 36.5884 18.3801 36.825 18.5659 37.0603C18.7587 37.2918 18.9531 37.4766 19.149 37.6148C19.1933 37.6451 19.2357 37.6719 19.2761 37.6952C19.3235 37.7146 19.3686 37.7215 19.4113 37.7161C19.4719 37.7098 19.51 37.7207 19.5255 37.7486C19.5372 37.7696 19.5255 37.7898 19.4906 37.8093ZM20.4156 35.2762C20.1639 35.4162 19.862 35.3919 19.5099 35.2033C19.1609 35.0038 18.8075 34.5824 18.4498 33.9392C18.2164 33.5197 18.0822 33.155 18.0471 32.845C18.0081 32.528 18.0324 32.2673 18.1201 32.0629C18.2078 31.8585 18.3216 31.7174 18.4614 31.6396C18.6012 31.5618 18.7473 31.5446 18.8996 31.5881C19.048 31.6245 19.1709 31.7301 19.2681 31.9049C19.3614 32.0727 19.4116 32.2782 19.4188 32.5214C19.422 32.7576 19.3965 32.9915 19.3422 33.2231C19.291 33.4438 19.2126 33.6156 19.107 33.7384C19.0868 33.7679 19.0558 33.7944 19.0138 33.8177C18.9859 33.8333 18.966 33.8306 18.9544 33.8096C18.9233 33.7537 18.9442 33.6596 19.0172 33.5275C19.1026 33.3518 19.1537 33.1311 19.1707 32.8654C19.1837 32.5926 19.1475 32.3794 19.062 32.2256C19.0114 32.1347 18.9515 32.0764 18.8824 32.0508C18.8093 32.0182 18.7448 32.0175 18.6889 32.0486C18.584 32.1069 18.5153 32.255 18.4828 32.4928C18.4534 32.7197 18.5216 33.0479 18.6873 33.4775C18.7355 33.5972 18.7818 33.7133 18.8262 33.826C18.8736 33.9277 18.9246 34.0276 18.979 34.1254C19.1968 34.5169 19.4273 34.7915 19.6706 34.9491C19.91 35.0997 20.1276 35.1206 20.3233 35.0117C20.4911 34.9184 20.6255 34.7155 20.7263 34.4031C20.8233 34.0837 20.8545 33.6544 20.8201 33.1151C20.8068 32.976 20.8316 32.889 20.8945 32.854C20.9365 32.8307 20.973 32.847 21.0041 32.9029C21.0313 32.9518 21.0465 33.012 21.0496 33.0835C21.1168 33.6321 21.089 34.1006 20.9665 34.4892C20.8439 34.8778 20.6603 35.1401 20.4156 35.2762Z" fill="black"/>
<rect x="56.1738" y="65.5566" width="21" height="13" transform="rotate(-29.0842 56.1738 65.5566)" fill="#E4E4E4"/>
<path d="M66.7017 74.2055C66.3591 74.3961 65.947 74.4285 65.4651 74.3029C64.9903 74.1734 64.4956 73.8764 63.9809 73.412C63.4702 72.9546 62.9912 72.3239 62.544 71.5199C62.4896 71.422 62.4332 71.3207 62.3748 71.2158C62.3235 71.107 62.2702 70.9948 62.215 70.879C62.149 70.9249 62.081 70.9673 62.0111 71.0062C61.9482 71.0412 61.8887 71.0742 61.8328 71.1054C61.4273 71.3309 61.101 71.4437 60.8539 71.4439C60.6138 71.4401 60.4471 71.3543 60.3538 71.1865C60.2604 71.0187 60.2378 70.7888 60.2858 70.4966C60.3408 70.2005 60.4568 69.8659 60.6338 69.4929C60.8108 69.1198 61.0448 68.7424 61.336 68.3608C61.1741 67.691 61.0435 66.9626 60.9444 66.1756C60.8454 65.3885 60.7936 64.5384 60.7893 63.6254C60.7877 63.5073 60.8358 63.4211 60.9337 63.3666C60.9966 63.3316 61.0642 63.3215 61.1365 63.3362C61.2087 63.3509 61.2643 63.3932 61.3032 63.4632C61.3226 63.4981 61.3374 63.5494 61.3476 63.617C61.3539 63.76 61.3621 63.9064 61.3723 64.0564C61.3786 64.1994 61.3848 64.3423 61.3911 64.4853C61.4843 64.406 61.5589 64.3508 61.6148 64.3197C61.6708 64.2886 61.7352 64.2481 61.8083 64.1984C61.8813 64.1486 61.9923 64.0685 62.1415 63.9581C62.3458 63.7987 62.5399 63.6541 62.724 63.5242C62.9151 63.3905 63.098 63.275 63.2728 63.1777C63.937 62.8083 64.4905 62.6515 64.9335 62.7072C65.3764 62.7629 65.697 62.969 65.8954 63.3256C66.1326 63.752 66.1869 64.3352 66.0583 65.075C65.949 65.685 65.7446 66.3297 65.445 67.0089C65.1524 67.6843 64.7623 68.3407 64.2747 68.9781C63.7901 69.6047 63.2131 70.1637 62.5436 70.6551C62.6284 70.8734 62.7163 71.0808 62.8073 71.2773C62.8983 71.4739 62.9905 71.6561 63.0838 71.8238C63.4221 72.4321 63.7701 72.8931 64.1277 73.2068C64.4962 73.5236 64.8475 73.7356 65.1817 73.8426C65.5228 73.9458 65.8236 73.9845 66.0839 73.9587C66.3511 73.9291 66.5512 73.8773 66.684 73.8034C66.7889 73.7451 66.8491 73.6887 66.8646 73.6343C66.8731 73.5838 66.8949 73.5488 66.9298 73.5294C67.0067 73.4866 67.0743 73.5176 67.1327 73.6225C67.1793 73.7064 67.172 73.7837 67.1106 73.8545C66.9988 73.9991 66.8625 74.1161 66.7017 74.2055ZM62.47 70.4488C63.1224 69.8937 63.6622 69.3005 64.0892 68.6694C64.5232 68.0343 64.8621 67.3927 65.1057 66.7445C65.3494 66.0964 65.5099 65.4715 65.5873 64.8701C65.6368 64.5313 65.6476 64.2461 65.6195 64.0146C65.5875 63.776 65.5307 63.5834 65.449 63.4365C65.3168 63.1988 65.1279 63.0567 64.8823 63.0102C64.6399 62.9529 64.3683 62.9666 64.0677 63.0515C63.767 63.1363 63.4628 63.2643 63.1552 63.4354C62.8336 63.6143 62.5311 63.8192 62.2476 64.0501C61.9641 64.281 61.7253 64.51 61.5311 64.737C61.4939 64.7852 61.4539 64.812 61.4111 64.8175C61.4573 65.3777 61.5112 65.9107 61.5728 66.4165C61.6375 66.9114 61.7101 67.3792 61.7903 67.8197C62.0365 67.5546 62.3044 67.2957 62.5941 67.043C62.8838 66.7904 63.1996 66.5598 63.5414 66.3514L63.5833 66.3281C63.6532 66.2892 63.696 66.2837 63.7115 66.3117C63.7232 66.3326 63.7018 66.3766 63.6475 66.4434C63.6001 66.5064 63.5015 66.5841 63.3516 66.6767C63.0377 66.8695 62.7569 67.0806 62.5092 67.31C62.2575 67.5324 62.0296 67.7644 61.8254 68.0062C61.9181 68.4856 62.0182 68.9288 62.1256 69.3359C62.24 69.7391 62.3548 70.1101 62.47 70.4488ZM61.7931 70.9352C61.849 70.9041 61.905 70.873 61.9609 70.8419C62.0199 70.7999 62.0789 70.7579 62.138 70.7159C61.9987 70.3997 61.8676 70.0653 61.7447 69.7126C61.6178 69.3529 61.5026 68.973 61.3991 68.5729C61.08 69.0524 60.8673 69.5094 60.7611 69.9439C60.651 70.3713 60.6562 70.6934 60.7767 70.9101C60.8506 71.0429 60.9738 71.1163 61.1463 71.1302C61.3188 71.1441 61.5344 71.0791 61.7931 70.9352ZM67.6633 70.4987C67.5375 70.5687 67.4174 70.5668 67.3032 70.493C67.185 70.4123 67.0851 70.2985 67.0035 70.1517C66.8985 69.9629 66.8074 69.7252 66.7304 69.4385C66.6603 69.1479 66.6073 68.8387 66.5714 68.5108C66.5316 68.1759 66.5194 67.8577 66.5347 67.5562C66.5532 67.2439 66.604 66.973 66.687 66.7438C66.7661 66.5075 66.8826 66.3466 67.0364 66.2611C67.1762 66.1833 67.3301 66.1801 67.498 66.2515C67.6689 66.312 67.7972 66.4192 67.8828 66.573C67.9333 66.6639 67.9621 66.7486 67.9691 66.827C67.9723 66.8985 67.9564 66.944 67.9214 66.9634C67.8935 66.979 67.8573 66.9716 67.813 66.9413C67.6537 66.8194 67.5126 66.7469 67.3898 66.7236C67.274 66.6965 67.1742 66.7062 67.0903 66.7529C66.9505 66.8307 66.8554 66.9888 66.805 67.2274C66.7577 67.4551 66.7485 67.6937 66.7774 67.9431C66.793 68.1358 66.8296 68.358 66.8873 68.6097C66.948 68.8506 67.0157 69.0875 67.0905 69.3206C67.1683 69.5428 67.2441 69.7203 67.318 69.8531C67.4502 70.0908 67.5723 70.1786 67.6841 70.1163C67.8239 70.0386 67.9167 69.7856 67.9623 69.3574C67.9987 69.0443 67.9981 68.7059 67.9606 68.3423C67.9301 67.9747 67.9 67.6573 67.8704 67.39C67.8664 67.3007 67.8796 67.2339 67.9099 67.1896C67.9402 67.1452 67.9728 67.1134 68.0077 67.0939C68.0916 67.0473 68.1635 67.0531 68.2234 67.1113C68.2902 67.1657 68.3373 67.2173 68.3645 67.2662C68.4656 67.448 68.5395 67.622 68.5862 67.7883C68.629 67.9476 68.7068 68.1286 68.8196 68.3313C68.9013 68.4781 68.9876 68.6086 69.0786 68.7228C69.1726 68.8261 69.2511 68.8602 69.3141 68.8253C69.391 68.7825 69.4344 68.6302 69.4444 68.3683C69.4412 68.2968 69.4676 68.2455 69.5235 68.2144C69.5865 68.1794 69.6354 68.1934 69.6704 68.2563C69.721 68.3472 69.7125 68.48 69.645 68.6549C69.5736 68.8228 69.475 68.9417 69.3491 69.0117C69.1813 69.105 69.0236 69.1012 68.8759 69.0003C68.6287 68.8357 68.4546 68.6625 68.3535 68.4807C68.2485 68.292 68.173 68.1646 68.1272 68.0986C68.1389 68.2019 68.1463 68.3717 68.1496 68.6079C68.1489 68.8371 68.1366 69.0866 68.1127 69.3562C68.0848 69.6188 68.0344 69.8574 67.9615 70.0719C67.8886 70.2864 67.7892 70.4287 67.6633 70.4987ZM71.9435 70.4248C71.8736 70.4637 71.7749 70.4591 71.6474 70.411C71.5308 70.366 71.3983 70.284 71.2498 70.1652C71.005 69.9719 70.7838 69.747 70.5863 69.4907C70.3927 69.2414 70.2181 68.9769 70.0626 68.6973C69.8915 68.3896 69.7452 68.0774 69.6238 67.7604C69.5025 67.4434 69.4001 67.1525 69.3168 66.8876C69.2585 66.7003 69.2013 66.4987 69.1452 66.2827C69.0891 66.0667 69.051 65.8912 69.0307 65.756C68.9926 65.7863 68.9398 65.8477 68.8723 65.9402C68.8047 66.0327 68.7337 66.1272 68.6591 66.2235C68.5916 66.316 68.5228 66.3817 68.4529 66.4206C68.3481 66.479 68.2626 66.4487 68.1965 66.3298C68.1615 66.2669 68.1513 66.1993 68.1661 66.1271C68.1878 66.0509 68.2258 65.9794 68.2802 65.9125C68.385 65.7718 68.5135 65.6408 68.6658 65.5195C68.8141 65.3913 68.9065 65.2941 68.943 65.228L68.8307 64.3842C68.8198 64.2988 68.8065 64.1597 68.7908 63.967C68.7783 63.7634 68.7704 63.5435 68.7672 63.3073C68.771 63.0672 68.7809 62.8465 68.7972 62.6453C68.8118 62.4906 68.8366 62.3624 68.8715 62.2606C68.9026 62.1518 68.96 62.0741 69.0439 62.0274C69.1698 61.9574 69.2599 61.9713 69.3144 62.0692C69.3455 62.1251 69.3677 62.2226 69.3809 62.3617C69.4012 62.4969 69.4025 62.6885 69.3847 62.9363C69.3686 63.22 69.3489 63.5055 69.3257 63.793C69.3057 64.0697 69.3089 64.3471 69.3355 64.6252C69.3441 64.6571 69.3519 64.7123 69.3589 64.7907C69.369 64.8583 69.371 64.903 69.3648 64.9248L69.557 64.7766C69.6091 64.7385 69.67 64.7 69.74 64.6612C69.806 64.6153 69.8809 64.569 69.9648 64.5223C70.0837 64.4562 70.1994 64.401 70.3121 64.3567C70.4278 64.3014 70.5284 64.2683 70.6139 64.2574C70.6566 64.252 70.6978 64.2519 70.7374 64.2574C70.7802 64.2519 70.8054 64.2562 70.8132 64.2701C70.8288 64.2981 70.7457 64.3626 70.5639 64.4638C70.459 64.5221 70.3184 64.6232 70.1421 64.767C69.9728 64.907 69.7872 65.0834 69.5853 65.2965C69.4859 65.3975 69.4327 65.4912 69.4257 65.5774C69.4188 65.6637 69.4465 65.8451 69.5088 66.1217C69.6139 66.5576 69.7322 66.9678 69.8637 67.3523C69.9914 67.7299 70.1369 68.1067 70.3002 68.4827C70.3321 68.5565 70.366 68.6338 70.4017 68.7146C70.4445 68.7915 70.4912 68.8754 70.5417 68.9663C70.674 69.204 70.833 69.4405 71.0188 69.6758C71.2116 69.9073 71.406 70.0921 71.6019 70.2303C71.6462 70.2606 71.6885 70.2874 71.729 70.3107C71.7764 70.3301 71.8214 70.3371 71.8642 70.3316C71.9248 70.3253 71.9629 70.3362 71.9784 70.3642C71.9901 70.3851 71.9784 70.4053 71.9435 70.4248ZM73.7049 69.445C73.635 69.4839 73.5363 69.4793 73.4089 69.4312C73.2923 69.3862 73.1598 69.3043 73.0113 69.1854C72.7664 68.9921 72.5453 68.7673 72.3478 68.5109C72.1542 68.2616 71.9796 67.9971 71.824 67.7175C71.6529 67.4099 71.5067 67.0976 71.3853 66.7806C71.2639 66.4636 71.1616 66.1727 71.0783 65.9078C71.0199 65.7205 70.9627 65.5189 70.9067 65.3029C70.8506 65.087 70.8124 64.9114 70.7922 64.7762C70.7541 64.8065 70.7013 64.8679 70.6338 64.9604C70.5662 65.0529 70.4951 65.1474 70.4206 65.2438C70.353 65.3363 70.2843 65.402 70.2144 65.4408C70.1095 65.4992 70.024 65.4689 69.9579 65.3501C69.9229 65.2871 69.9128 65.2195 69.9275 65.1473C69.9492 65.0711 69.9873 64.9996 70.0416 64.9328C70.1465 64.7921 70.275 64.6611 70.4272 64.5398C70.5756 64.4115 70.668 64.3143 70.7045 64.2482L70.5922 63.4044C70.5812 63.319 70.5679 63.1799 70.5523 62.9872C70.5398 62.7836 70.5319 62.5637 70.5287 62.3275C70.5324 62.0874 70.5424 61.8667 70.5586 61.6655C70.5733 61.5108 70.5981 61.3826 70.633 61.2808C70.664 61.172 70.7215 61.0943 70.8054 61.0476C70.9312 60.9776 71.0214 60.9915 71.0758 61.0894C71.1069 61.1454 71.1291 61.2429 71.1424 61.3819C71.1627 61.5171 71.1639 61.7087 71.1462 61.9565C71.13 62.2402 71.1104 62.5257 71.0872 62.8133C71.0671 63.0899 71.0704 63.3673 71.097 63.6454C71.1055 63.6773 71.1133 63.7325 71.1204 63.8109C71.1305 63.8785 71.1325 63.9232 71.1263 63.945L71.3185 63.7969C71.3705 63.7588 71.4315 63.7203 71.5014 63.6814C71.5674 63.6355 71.6424 63.5892 71.7263 63.5426C71.8451 63.4764 71.9609 63.4212 72.0735 63.3769C72.1893 63.3216 72.2899 63.2886 72.3754 63.2776C72.4181 63.2722 72.4593 63.2722 72.4989 63.2776C72.5416 63.2721 72.5669 63.2764 72.5747 63.2904C72.5902 63.3183 72.5071 63.3829 72.3254 63.484C72.2205 63.5423 72.0799 63.6434 71.9036 63.7872C71.7343 63.9272 71.5486 64.1037 71.3467 64.3167C71.2473 64.4177 71.1941 64.5114 71.1872 64.5976C71.1802 64.6839 71.2079 64.8653 71.2702 65.1419C71.3754 65.5778 71.4937 65.988 71.6252 66.3725C71.7528 66.7501 71.8983 67.1269 72.0617 67.5029C72.0936 67.5767 72.1274 67.654 72.1632 67.7348C72.206 67.8117 72.2527 67.8956 72.3032 67.9865C72.4354 68.2242 72.5945 68.4607 72.7803 68.696C72.9731 68.9275 73.1675 69.1123 73.3633 69.2505C73.4076 69.2808 73.45 69.3076 73.4904 69.3309C73.5378 69.3503 73.5829 69.3573 73.6256 69.3518C73.6862 69.3456 73.7243 69.3564 73.7399 69.3844C73.7515 69.4054 73.7399 69.4256 73.7049 69.445ZM74.6299 66.912C74.3782 67.052 74.0763 67.0277 73.7242 66.839C73.3753 66.6395 73.0219 66.2182 72.6641 65.575C72.4308 65.1555 72.2966 64.7907 72.2614 64.4807C72.2224 64.1637 72.2468 63.903 72.3345 63.6986C72.4222 63.4942 72.5359 63.3531 72.6757 63.2753C72.8156 63.1976 72.9616 63.1804 73.114 63.2238C73.2624 63.2603 73.3852 63.3659 73.4824 63.5407C73.5758 63.7085 73.626 63.914 73.6331 64.1572C73.6363 64.3934 73.6108 64.6273 73.5566 64.8589C73.5054 65.0796 73.427 65.2513 73.3214 65.3741C73.3012 65.4037 73.2701 65.4301 73.2282 65.4535C73.2002 65.469 73.1804 65.4663 73.1687 65.4453C73.1376 65.3894 73.1586 65.2954 73.2315 65.1632C73.3169 64.9876 73.3681 64.7669 73.385 64.5011C73.3981 64.2284 73.3619 64.0151 73.2763 63.8613C73.2258 63.7704 73.1659 63.7122 73.0967 63.6866C73.0237 63.654 72.9592 63.6532 72.9032 63.6843C72.7984 63.7427 72.7297 63.8907 72.6972 64.1285C72.6678 64.3554 72.7359 64.6837 72.9016 65.1133C72.9499 65.2329 72.9962 65.3491 73.0405 65.4617C73.088 65.5635 73.1389 65.6633 73.1934 65.7612C73.4111 66.1527 73.6417 66.4272 73.885 66.5849C74.1244 66.7355 74.3419 66.7563 74.5377 66.6475C74.7055 66.5541 74.8398 66.3513 74.9407 66.0388C75.0376 65.7194 75.0689 65.2901 75.0344 64.7509C75.0211 64.6118 75.0459 64.5247 75.1089 64.4897C75.1508 64.4664 75.1873 64.4827 75.2185 64.5386C75.2457 64.5876 75.2609 64.6478 75.264 64.7193C75.3311 65.2678 75.3034 65.7364 75.1808 66.125C75.0582 66.5135 74.8746 66.7759 74.6299 66.912Z" fill="black"/>
<path d="M42.1642 54.1942C42.0768 54.2428 41.9745 54.2234 41.8572 54.1361C41.7432 54.0545 41.6308 53.9416 41.52 53.7973C41.4034 53.6562 41.3078 53.5186 41.2333 53.3846C41.1976 53.3205 41.1487 53.2257 41.0865 53.1001C41.0242 52.9745 40.9601 52.8386 40.8939 52.6923C40.8278 52.546 40.7665 52.4084 40.7101 52.2796C40.6537 52.1507 40.6106 52.0527 40.5808 51.9853C40.4129 51.56 40.2793 51.1346 40.18 50.7093C40.0774 50.2781 39.9885 49.8508 39.9132 49.4273C39.9125 49.4124 39.9086 49.3917 39.9015 49.3652C39.9002 49.3354 39.9024 49.3189 39.9083 49.3156L39.8937 49.2894C39.8484 49.3451 39.8034 49.4426 39.7588 49.5818C39.72 49.7178 39.6932 49.8205 39.6784 49.8898C39.6603 49.9532 39.6467 50.018 39.6377 50.084C39.6254 50.1443 39.596 50.1873 39.5494 50.2133C39.5028 50.2392 39.4649 50.2259 39.4357 50.1735C39.4001 50.1094 39.3994 50.0259 39.4336 49.9229C39.4588 49.8174 39.496 49.7128 39.5452 49.6091C39.5911 49.4997 39.6461 49.3928 39.7101 49.2885C39.78 49.181 39.8288 49.1042 39.8567 49.0583C39.8677 49.0369 39.8712 49.0158 39.8673 48.9951C39.8692 48.9712 39.8683 48.9488 39.8644 48.9281C39.8695 48.8413 39.8763 48.7575 39.8846 48.6765C39.8988 48.5923 39.9373 48.5175 40.0001 48.4521C40.0558 48.4288 40.1205 48.408 40.1943 48.3898C40.2681 48.3717 40.3287 48.3914 40.376 48.449C40.3889 48.4723 40.4013 48.4807 40.4129 48.4742L40.4178 48.483C40.4469 48.4668 40.4802 48.4444 40.5178 48.4159C40.5579 48.3783 40.6071 48.3433 40.6654 48.3109C40.8926 48.1845 41.1085 48.1407 41.3131 48.1795C41.5178 48.2182 41.6736 48.3337 41.7805 48.526C41.881 48.7066 41.9371 48.9309 41.9489 49.199C41.9574 49.4612 41.9362 49.6905 41.8851 49.8867C41.7998 50.1859 41.6899 50.4683 41.5553 50.7338C41.4234 50.9903 41.2817 51.1607 41.1302 51.2449C41.037 51.2968 40.9583 51.3062 40.8942 51.2732C40.8391 51.2428 40.7921 51.1927 40.7533 51.1227C40.6982 51.0237 40.6868 50.9004 40.7191 50.7527C40.7514 50.605 40.7918 50.472 40.8403 50.3534C40.8939 50.2168 40.9538 50.0843 41.0198 49.9561C41.0916 49.8246 41.1524 49.7145 41.2022 49.6258C41.2268 49.5739 41.2501 49.5267 41.272 49.4839C41.2999 49.4379 41.3283 49.4068 41.3575 49.3906C41.3749 49.3809 41.3885 49.3848 41.3983 49.4023C41.4048 49.4139 41.386 49.4625 41.342 49.548C41.3038 49.6302 41.2712 49.7018 41.244 49.7627C41.2253 49.8113 41.1933 49.8977 41.148 50.0221C41.0995 50.1406 41.0516 50.274 41.0045 50.4223C40.9598 50.5616 40.9285 50.6972 40.9104 50.8293C40.8924 50.9614 40.9028 51.0624 40.9417 51.1324C41.0349 51.0805 41.1158 50.9859 41.1844 50.8486C41.2555 50.7022 41.3173 50.5458 41.3696 50.3794C41.4278 50.2097 41.4783 50.0672 41.5209 49.9519C41.5578 49.8399 41.5946 49.6935 41.6314 49.5129C41.6683 49.3322 41.6886 49.1493 41.6923 48.9641C41.6961 48.7789 41.6656 48.628 41.6008 48.5115C41.5166 48.36 41.3967 48.2817 41.2413 48.2766C41.0885 48.2625 40.9334 48.2991 40.7761 48.3866C40.7237 48.4158 40.6599 48.4589 40.5848 48.5159C40.5098 48.5729 40.4667 48.6121 40.4557 48.6335C40.4377 48.9029 40.4272 49.1719 40.4241 49.4406C40.421 49.7094 40.4299 49.9791 40.4507 50.2497C40.482 50.69 40.5486 51.1183 40.6505 51.5346C40.7582 51.9477 40.9142 52.3721 41.1184 52.8077C41.1676 52.91 41.2172 53.0197 41.2671 53.1369C41.3229 53.2509 41.3845 53.3616 41.4518 53.469C41.4901 53.524 41.5536 53.6108 41.6424 53.7292C41.7311 53.8477 41.8251 53.948 41.9242 54.0302C42.0233 54.1124 42.1078 54.134 42.1777 54.0951C42.1836 54.0919 42.1952 54.0854 42.2127 54.0757C42.2302 54.0659 42.2405 54.064 42.2438 54.0698L42.2583 54.096C42.2305 54.142 42.1991 54.1747 42.1642 54.1942ZM43.6048 49.8112C43.3951 49.9279 43.1435 49.9076 42.8501 49.7504C42.5593 49.5842 42.2648 49.233 41.9667 48.697C41.7722 48.3475 41.6604 48.0435 41.6311 47.7852C41.5986 47.521 41.6189 47.3038 41.692 47.1334C41.765 46.9631 41.8598 46.8455 41.9764 46.7807C42.0929 46.7159 42.2146 46.7016 42.3415 46.7378C42.4652 46.7681 42.5676 46.8561 42.6486 47.0018C42.7264 47.1416 42.7682 47.3129 42.7742 47.5155C42.7769 47.7124 42.7556 47.9073 42.7104 48.1003C42.6677 48.2842 42.6024 48.4273 42.5144 48.5297C42.4976 48.5543 42.4717 48.5763 42.4367 48.5958C42.4134 48.6087 42.3969 48.6065 42.3872 48.589C42.3613 48.5424 42.3787 48.464 42.4395 48.3539C42.5107 48.2076 42.5533 48.0236 42.5674 47.8022C42.5783 47.5749 42.5481 47.3972 42.4768 47.269C42.4347 47.1933 42.3848 47.1447 42.3272 47.1234C42.2663 47.0962 42.2125 47.0956 42.1659 47.1215C42.0785 47.1701 42.0213 47.2935 41.9942 47.4917C41.9697 47.6808 42.0265 47.9543 42.1646 48.3123C42.2048 48.412 42.2434 48.5088 42.2803 48.6027C42.3199 48.6875 42.3623 48.7707 42.4077 48.8522C42.5892 49.1785 42.7813 49.4073 42.984 49.5386C43.1835 49.6641 43.3649 49.6815 43.528 49.5908C43.6678 49.513 43.7797 49.344 43.8638 49.0836C43.9446 48.8174 43.9706 48.4597 43.9419 48.0103C43.9308 47.8944 43.9515 47.8219 44.004 47.7927C44.0389 47.7733 44.0694 47.7868 44.0953 47.8334C44.118 47.8742 44.1306 47.9244 44.1332 47.984C44.1892 48.4411 44.1661 48.8316 44.0639 49.1554C43.9618 49.4792 43.8087 49.6978 43.6048 49.8112Z" fill="black"/>
<rect x="37.6984" y="11.257" width="53.5" height="71.5" transform="rotate(-11.4255 37.6984 11.257)" fill="#EFEFEF" stroke="#383737" stroke-width="0.5"/>
<rect x="38.978" y="13.8037" width="18" height="15" transform="rotate(-11.4255 38.978 13.8037)" fill="#B1B3B4" fill-opacity="0.18"/>
<path d="M45.4059 25.4369C45.0216 25.5146 44.619 25.4205 44.198 25.1546C43.7848 24.8872 43.4035 24.4541 43.054 23.8555C42.7061 23.2647 42.441 22.5184 42.2587 21.6167C42.2365 21.5069 42.2136 21.3932 42.1898 21.2755C42.1739 21.1563 42.1571 21.0332 42.1396 20.9062C42.0628 20.9299 41.9852 20.9496 41.9068 20.9655C41.8362 20.9797 41.7695 20.9932 41.7068 21.0059C41.252 21.0978 40.9069 21.1063 40.6714 21.0315C40.4437 20.9551 40.3109 20.8228 40.2728 20.6346C40.2348 20.4464 40.283 20.2204 40.4174 19.9565C40.5596 19.6911 40.7716 19.4075 41.0534 19.1057C41.3352 18.8039 41.6728 18.5153 42.066 18.2399C42.1148 17.5526 42.2114 16.819 42.3557 16.0389C42.5001 15.2589 42.7086 14.4332 42.9815 13.5619C43.0157 13.4488 43.0878 13.3812 43.1976 13.359C43.2681 13.3448 43.3356 13.3556 43.4 13.3916C43.4644 13.4275 43.5045 13.4847 43.5204 13.5631C43.5283 13.6023 43.5268 13.6557 43.516 13.7232C43.4786 13.8613 43.442 14.0034 43.4063 14.1494C43.3689 14.2875 43.3315 14.4256 43.2941 14.5638C43.407 14.5165 43.4948 14.4865 43.5575 14.4738C43.6203 14.4611 43.694 14.4422 43.7786 14.4169C43.8633 14.3916 43.9934 14.349 44.169 14.289C44.412 14.1991 44.6409 14.1202 44.8557 14.0523C45.0784 13.9828 45.2877 13.9283 45.4838 13.8886C46.2287 13.7381 46.8038 13.7566 47.2089 13.944C47.6141 14.1315 47.8571 14.4251 47.9379 14.8251C48.0346 15.3034 47.9094 15.8755 47.5625 16.5414C47.2733 17.0896 46.883 17.6419 46.3915 18.1982C45.9078 18.7531 45.3369 19.2602 44.6789 19.7196C44.0271 20.1697 43.3077 20.5273 42.5206 20.7924C42.5352 21.0262 42.5561 21.2505 42.5832 21.4654C42.6103 21.6803 42.6429 21.8818 42.6809 22.07C42.8188 22.7522 43.0105 23.297 43.2561 23.7045C43.5111 24.1181 43.7816 24.4267 44.0675 24.6301C44.3613 24.8319 44.6361 24.96 44.892 25.0144C45.1557 25.0672 45.362 25.0785 45.511 25.0484C45.6286 25.0246 45.7031 24.9892 45.7343 24.9421C45.7578 24.8965 45.7891 24.8698 45.8283 24.8619C45.9146 24.8444 45.9696 24.8945 45.9934 25.0121C46.0124 25.1062 45.9819 25.1777 45.902 25.2265C45.7516 25.3303 45.5862 25.4005 45.4059 25.4369ZM42.5131 20.5736C43.3032 20.2425 43.9974 19.841 44.5958 19.3692C45.2021 18.8957 45.7196 18.3871 46.1483 17.8434C46.5771 17.2997 46.9196 16.753 47.1758 16.2033C47.3258 15.8955 47.4226 15.627 47.466 15.3979C47.5079 15.1609 47.5122 14.9601 47.4789 14.7954C47.4251 14.5288 47.2882 14.3361 47.0683 14.2173C46.8546 14.0891 46.5917 14.0198 46.2795 14.0094C45.9672 13.9991 45.6386 14.0288 45.2936 14.0985C44.9329 14.1714 44.5824 14.2749 44.2422 14.4089C43.902 14.5429 43.605 14.6887 43.3512 14.8461C43.301 14.8807 43.2548 14.8941 43.2124 14.8864C43.0864 15.4342 42.9761 15.9584 42.8814 16.4591C42.793 16.9504 42.7202 17.418 42.663 17.8622C42.978 17.6842 43.3118 17.5188 43.6646 17.3659C44.0173 17.213 44.3881 17.0891 44.777 16.9942L44.824 16.9847C44.9024 16.9689 44.9448 16.9766 44.9511 17.008C44.9559 17.0315 44.9222 17.0669 44.8502 17.1141C44.7859 17.1597 44.6683 17.2039 44.4974 17.2466C44.1399 17.3352 43.8083 17.4512 43.5026 17.5945C43.1954 17.7301 42.9078 17.8821 42.6398 18.0505C42.5828 18.5354 42.5437 18.9881 42.5226 19.4086C42.5093 19.8276 42.5062 20.2159 42.5131 20.5736ZM41.7206 20.8317C41.7833 20.819 41.846 20.8063 41.9088 20.7937C41.9778 20.7716 42.0467 20.7495 42.1157 20.7274C42.079 20.3838 42.0555 20.0254 42.0453 19.652C42.0336 19.2708 42.039 18.8738 42.0617 18.4611C41.6122 18.8213 41.2709 19.1923 41.0379 19.574C40.8033 19.9479 40.7106 20.2564 40.7597 20.4995C40.7898 20.6484 40.885 20.7557 41.0451 20.8213C41.2053 20.8869 41.4304 20.8903 41.7206 20.8317ZM47.4466 22.1965C47.3055 22.225 47.1917 22.1868 47.1052 22.0818C47.0171 21.969 46.9564 21.8303 46.9231 21.6656C46.8803 21.4539 46.8657 21.1998 46.8792 20.9032C46.9006 20.6051 46.9439 20.2944 47.0091 19.971C47.0728 19.6398 47.1577 19.333 47.2638 19.0503C47.3762 18.7583 47.5067 18.5156 47.6553 18.3223C47.8024 18.1212 47.9622 18.0032 48.1347 17.9684C48.2916 17.9367 48.4391 17.9803 48.5774 18.0993C48.722 18.2088 48.8117 18.3498 48.8466 18.5223C48.8672 18.6243 48.8689 18.7137 48.8518 18.7906C48.8331 18.8597 48.8042 18.8982 48.765 18.9061C48.7336 18.9124 48.7014 18.8945 48.6684 18.8522C48.5535 18.6877 48.4411 18.5757 48.3312 18.5163C48.2291 18.4553 48.131 18.4343 48.0369 18.4534C47.88 18.4851 47.7414 18.6069 47.621 18.819C47.5069 19.0216 47.4258 19.2461 47.3776 19.4925C47.3341 19.6809 47.3016 19.9038 47.2802 20.1611C47.265 20.409 47.2576 20.6554 47.2581 20.9001C47.2649 21.1354 47.2833 21.3276 47.3134 21.4766C47.3673 21.7432 47.457 21.8638 47.5824 21.8385C47.7392 21.8068 47.9043 21.5938 48.0777 21.1997C48.2073 20.9123 48.3095 20.5897 48.384 20.2318C48.4665 19.8724 48.5341 19.5608 48.5869 19.2971C48.6103 19.2108 48.6431 19.1511 48.6854 19.1181C48.7277 19.085 48.7684 19.0646 48.8076 19.0566C48.9017 19.0376 48.9685 19.0649 49.0078 19.1386C49.0551 19.2107 49.0842 19.2742 49.0953 19.329C49.1365 19.5329 49.1541 19.7212 49.1482 19.8938C49.1407 20.0585 49.1599 20.2546 49.2059 20.482C49.2392 20.6467 49.2818 20.7972 49.3339 20.9336C49.3922 21.0605 49.4566 21.1169 49.5272 21.1026C49.6135 21.0852 49.701 20.9532 49.79 20.7067C49.8087 20.6377 49.8494 20.5968 49.9121 20.5841C49.9827 20.5698 50.0251 20.598 50.0394 20.6686C50.06 20.7705 50.0116 20.8946 49.8942 21.0407C49.7752 21.179 49.6452 21.2624 49.504 21.291C49.3158 21.329 49.1667 21.2775 49.0566 21.1365C48.871 20.9047 48.7576 20.6869 48.7164 20.483C48.6736 20.2713 48.6403 20.127 48.6167 20.0501C48.5965 20.1522 48.5521 20.3162 48.4835 20.5423C48.4133 20.7605 48.326 20.9944 48.2213 21.2441C48.1151 21.4859 47.9948 21.698 47.8602 21.8803C47.7256 22.0625 47.5878 22.1679 47.4466 22.1965ZM51.5475 23.4244C51.4691 23.4403 51.3765 23.406 51.2696 23.3214C51.1722 23.2432 51.0707 23.1249 50.9653 22.9667C50.7906 22.7082 50.6481 22.4268 50.5376 22.1227C50.4288 21.8264 50.3427 21.5214 50.2793 21.2077C50.2095 20.8627 50.1649 20.5208 50.1454 20.1819C50.1259 19.8431 50.1166 19.5348 50.1177 19.2571C50.1188 19.061 50.1255 18.8515 50.1376 18.6287C50.1497 18.4059 50.1666 18.227 50.1883 18.092C50.1428 18.1094 50.0738 18.1519 49.9814 18.2195C49.889 18.2872 49.7926 18.3556 49.6924 18.4249C49.5999 18.4925 49.5145 18.5343 49.4361 18.5501C49.3185 18.5739 49.2462 18.5191 49.2192 18.3858C49.205 18.3152 49.2158 18.2477 49.2518 18.1833C49.2956 18.1174 49.3535 18.0608 49.4256 18.0135C49.5682 17.9113 49.7304 17.8254 49.9122 17.756C50.0925 17.6788 50.21 17.6142 50.2649 17.5624L50.4138 16.7242C50.4293 16.6395 50.4588 16.5029 50.5024 16.3146C50.5522 16.1168 50.6114 15.9049 50.68 15.6788C50.7564 15.4511 50.8328 15.2439 50.9093 15.057C50.9702 14.9141 51.0328 14.7995 51.0969 14.7131C51.1595 14.6188 51.2378 14.5622 51.3319 14.5431C51.4731 14.5146 51.5547 14.5552 51.5769 14.665C51.5896 14.7278 51.5812 14.8274 51.5516 14.964C51.5299 15.0989 51.473 15.2818 51.3809 15.5126C51.2795 15.778 51.1741 16.0441 51.0648 16.3111C50.9618 16.5686 50.8808 16.8339 50.8217 17.107C50.8202 17.14 50.8109 17.1949 50.7938 17.2718C50.7829 17.3393 50.7713 17.3825 50.7587 17.4013L50.9869 17.3185C51.048 17.298 51.1178 17.2798 51.1962 17.2639C51.273 17.2403 51.3585 17.2189 51.4526 17.1999C51.5859 17.1729 51.7129 17.1554 51.8337 17.1473C51.9608 17.1298 52.0667 17.1288 52.1514 17.1444C52.1938 17.1521 52.2331 17.1646 52.2692 17.1818C52.3116 17.1895 52.3343 17.2012 52.3375 17.2169C52.3438 17.2483 52.2451 17.2846 52.0412 17.3258C51.9236 17.3496 51.7589 17.4032 51.5473 17.4868C51.3435 17.5688 51.1131 17.6807 50.8561 17.8224C50.7307 17.8885 50.6516 17.9617 50.6188 18.0417C50.586 18.1218 50.5574 18.3031 50.5328 18.5855C50.5008 19.0328 50.4891 19.4595 50.4978 19.8659C50.5049 20.2644 50.5292 20.6675 50.5708 21.0754C50.5788 21.1554 50.5876 21.2393 50.5972 21.3271C50.6146 21.4134 50.6337 21.5075 50.6543 21.6094C50.7081 21.876 50.7879 22.1496 50.8936 22.4303C51.0071 22.7093 51.1363 22.9444 51.281 23.1355C51.314 23.1778 51.3463 23.2162 51.3777 23.2506C51.417 23.2835 51.4578 23.3038 51.5002 23.3116C51.5599 23.324 51.5928 23.3459 51.5992 23.3773C51.6039 23.4008 51.5867 23.4165 51.5475 23.4244ZM53.5232 23.0252C53.4448 23.041 53.3521 23.0067 53.2453 22.9222C53.1478 22.8439 53.0464 22.7257 52.941 22.5674C52.7663 22.3089 52.6237 22.0276 52.5133 21.7234C52.4045 21.4271 52.3183 21.1221 52.2549 20.8085C52.1852 20.4634 52.1406 20.1215 52.1211 19.7826C52.1016 19.4438 52.0923 19.1355 52.0933 18.8578C52.0945 18.6617 52.1011 18.4522 52.1132 18.2294C52.1253 18.0066 52.1422 17.8277 52.1639 17.6927C52.1185 17.7101 52.0495 17.7526 51.9571 17.8202C51.8647 17.8879 51.7683 17.9563 51.668 18.0256C51.5756 18.0932 51.4902 18.135 51.4118 18.1508C51.2942 18.1746 51.2219 18.1198 51.1949 17.9865C51.1807 17.9159 51.1915 17.8485 51.2275 17.7841C51.2713 17.7181 51.3292 17.6615 51.4013 17.6143C51.5438 17.512 51.7061 17.4262 51.8879 17.3568C52.0682 17.2795 52.1857 17.215 52.2405 17.1631L52.3895 16.325C52.405 16.2402 52.4345 16.1037 52.4781 15.9153C52.5279 15.7175 52.5871 15.5056 52.6556 15.2795C52.7321 15.0519 52.8085 14.8446 52.885 14.6578C52.9459 14.5149 53.0084 14.4002 53.0726 14.3138C53.1352 14.2195 53.2135 14.1629 53.3076 14.1439C53.4487 14.1153 53.5304 14.156 53.5526 14.2657C53.5653 14.3285 53.5568 14.4281 53.5273 14.5647C53.5056 14.6997 53.4487 14.8825 53.3566 15.1134C53.2552 15.3787 53.1498 15.6449 53.0405 15.9118C52.9375 16.1693 52.8564 16.4346 52.7974 16.7077C52.7959 16.7407 52.7866 16.7956 52.7695 16.8725C52.7586 16.94 52.7469 16.9832 52.7344 17.002L52.9625 16.9192C53.0237 16.8987 53.0935 16.8805 53.1719 16.8647C53.2487 16.841 53.3342 16.8196 53.4283 16.8006C53.5616 16.7737 53.6886 16.7562 53.8094 16.7481C53.9365 16.7305 54.0424 16.7296 54.1271 16.7451C54.1695 16.7528 54.2087 16.7653 54.2449 16.7825C54.2872 16.7902 54.31 16.802 54.3132 16.8176C54.3195 16.849 54.2207 16.8853 54.0169 16.9265C53.8992 16.9503 53.7346 17.004 53.523 17.0875C53.3192 17.1695 53.0888 17.2814 52.8318 17.4231C52.7064 17.4893 52.6273 17.5624 52.5945 17.6425C52.5617 17.7225 52.5331 17.9038 52.5085 18.1863C52.4765 18.6335 52.4648 19.0602 52.4735 19.4666C52.4805 19.8651 52.5049 20.2682 52.5465 20.6761C52.5545 20.7561 52.5633 20.84 52.5729 20.9278C52.5903 21.0141 52.6093 21.1082 52.6299 21.2101C52.6838 21.4767 52.7636 21.7504 52.8693 22.031C52.9828 22.31 53.1119 22.5451 53.2567 22.7362C53.2897 22.7785 53.3219 22.8169 53.3534 22.8513C53.3927 22.8842 53.4335 22.9045 53.4759 22.9123C53.5355 22.9247 53.5685 22.9466 53.5749 22.978C53.5796 23.0015 53.5624 23.0172 53.5232 23.0252ZM55.173 20.8921C54.8907 20.9491 54.6104 20.8344 54.3321 20.5478C54.0601 20.2518 53.8512 19.7431 53.7054 19.0217C53.6103 18.5512 53.593 18.163 53.6536 17.8569C53.7126 17.543 53.8149 17.302 53.9604 17.1338C54.106 16.9656 54.2572 16.8657 54.414 16.834C54.5709 16.8023 54.7153 16.8302 54.8472 16.9178C54.9776 16.9976 55.0626 17.1355 55.1022 17.3315C55.1403 17.5197 55.1258 17.7308 55.0588 17.9647C54.9902 18.1907 54.895 18.4059 54.773 18.6101C54.6573 18.8049 54.5305 18.9448 54.3926 19.0298C54.3644 19.0518 54.3268 19.0675 54.2797 19.0771C54.2483 19.0834 54.2303 19.0748 54.2255 19.0513C54.2129 18.9885 54.2613 18.9053 54.3709 18.8015C54.5056 18.66 54.6213 18.4653 54.7181 18.2172C54.8133 17.9613 54.8434 17.747 54.8086 17.5745C54.788 17.4726 54.7486 17.3989 54.6904 17.3535C54.6307 17.3003 54.5695 17.28 54.5067 17.2927C54.3891 17.3165 54.2788 17.4367 54.1756 17.6535C54.0788 17.8608 54.0442 18.1942 54.0718 18.6539C54.0814 18.7825 54.0903 18.9072 54.0984 19.028C54.1127 19.1394 54.131 19.2499 54.1532 19.3597C54.2419 19.7988 54.3783 20.1304 54.5623 20.3544C54.7448 20.5705 54.9458 20.6564 55.1653 20.612C55.3535 20.574 55.5431 20.4214 55.7339 20.1543C55.9232 19.8794 56.0832 19.4798 56.214 18.9555C56.2435 18.8189 56.2936 18.7435 56.3641 18.7293C56.4112 18.7197 56.441 18.7464 56.4537 18.8091C56.4648 18.864 56.461 18.926 56.4423 18.995C56.3399 19.5381 56.1713 19.9762 55.9366 20.3092C55.702 20.6423 55.4474 20.8366 55.173 20.8921Z" fill="black"/>
<rect x="80.061" y="60.5928" width="21" height="13" transform="rotate(-11.4255 80.061 60.5928)" fill="#E4E4E4"/>
<path d="M87.4689 72.0278C87.0846 72.1054 86.682 72.0113 86.261 71.7454C85.8478 71.478 85.4665 71.0449 85.117 70.4463C84.769 69.8555 84.504 69.1092 84.3217 68.2075C84.2995 68.0977 84.2766 67.984 84.2528 67.8664C84.2369 67.7472 84.2201 67.624 84.2026 67.497C84.1258 67.5207 84.0482 67.5404 83.9697 67.5563C83.8992 67.5706 83.8325 67.584 83.7698 67.5967C83.315 67.6886 82.9698 67.6972 82.7343 67.6223C82.5067 67.5459 82.3739 67.4136 82.3358 67.2254C82.2978 67.0372 82.346 66.8112 82.4804 66.5473C82.6226 66.2819 82.8346 65.9983 83.1164 65.6965C83.3982 65.3947 83.7357 65.1061 84.129 64.8307C84.1778 64.1434 84.2744 63.4098 84.4187 62.6297C84.5631 61.8497 84.7716 61.024 85.0444 60.1527C85.0787 60.0397 85.1508 59.972 85.2605 59.9499C85.3311 59.9356 85.3986 59.9464 85.463 59.9824C85.5274 60.0184 85.5675 60.0755 85.5834 60.154C85.5913 60.1932 85.5898 60.2465 85.579 60.314C85.5416 60.4521 85.505 60.5942 85.4692 60.7402C85.4319 60.8783 85.3945 61.0165 85.3571 61.1546C85.47 61.1073 85.5578 61.0773 85.6205 61.0646C85.6832 61.052 85.7569 61.033 85.8416 61.0077C85.9263 60.9824 86.0564 60.9398 86.232 60.8798C86.475 60.7899 86.7039 60.711 86.9187 60.6431C87.1414 60.5736 87.3507 60.5191 87.5468 60.4795C88.2917 60.3289 88.8668 60.3474 89.2719 60.5348C89.6771 60.7223 89.9201 61.016 90.0009 61.4159C90.0976 61.8942 89.9724 62.4663 89.6255 63.1323C89.3363 63.6804 88.946 64.2327 88.4545 64.7891C87.9708 65.3439 87.3999 65.851 86.7419 66.3105C86.0901 66.7605 85.3707 67.1181 84.5836 67.3833C84.5982 67.617 84.6191 67.8413 84.6462 68.0562C84.6733 68.2711 84.7059 68.4726 84.7439 68.6608C84.8818 69.343 85.0735 69.8879 85.3191 70.2953C85.5741 70.709 85.8445 71.0175 86.1305 71.2209C86.4243 71.4227 86.6991 71.5508 86.955 71.6052C87.2186 71.658 87.425 71.6693 87.574 71.6392C87.6916 71.6155 87.7661 71.58 87.7973 71.5329C87.8208 71.4873 87.8521 71.4606 87.8913 71.4527C87.9776 71.4352 88.0326 71.4853 88.0563 71.603C88.0754 71.6971 88.0449 71.7685 87.965 71.8173C87.8146 71.9212 87.6492 71.9913 87.4689 72.0278ZM84.5761 67.1644C85.3662 66.8333 86.0604 66.4319 86.6588 65.96C87.265 65.4865 87.7825 64.9779 88.2113 64.4342C88.6401 63.8905 88.9826 63.3438 89.2388 62.7942C89.3888 62.4863 89.4855 62.2179 89.529 61.9887C89.5709 61.7517 89.5752 61.5509 89.5419 61.3862C89.488 61.1196 89.3512 60.9269 89.1313 60.8081C88.9176 60.6799 88.6547 60.6106 88.3425 60.6002C88.0302 60.5899 87.7016 60.6196 87.3566 60.6893C86.9959 60.7622 86.6454 60.8657 86.3052 60.9997C85.965 61.1338 85.668 61.2795 85.4142 61.4369C85.364 61.4715 85.3178 61.4849 85.2754 61.4772C85.1494 62.025 85.0391 62.5492 84.9444 63.0499C84.8559 63.5412 84.7831 64.0089 84.726 64.453C85.041 64.2751 85.3748 64.1097 85.7275 63.9568C86.0802 63.8039 86.451 63.6799 86.8399 63.585L86.887 63.5755C86.9654 63.5597 87.0078 63.5674 87.0141 63.5988C87.0189 63.6223 86.9852 63.6577 86.9131 63.7049C86.8489 63.7505 86.7313 63.7947 86.5604 63.8374C86.2029 63.926 85.8713 64.042 85.5656 64.1854C85.2584 64.3209 84.9708 64.4729 84.7028 64.6413C84.6458 65.1262 84.6067 65.5789 84.5856 65.9995C84.5723 66.4184 84.5691 66.8067 84.5761 67.1644ZM83.7836 67.4225C83.8463 67.4098 83.909 67.3972 83.9718 67.3845C84.0407 67.3624 84.1097 67.3403 84.1787 67.3182C84.1419 66.9747 84.1185 66.6162 84.1083 66.2428C84.0966 65.8616 84.102 65.4646 84.1247 65.052C83.6752 65.4122 83.3339 65.7831 83.1009 66.1648C82.8663 66.5387 82.7736 66.8472 82.8227 67.0903C82.8528 67.2393 82.948 67.3465 83.1081 67.4121C83.2683 67.4777 83.4934 67.4812 83.7836 67.4225ZM89.5096 68.7873C89.3685 68.8158 89.2547 68.7776 89.1682 68.6726C89.0801 68.5599 89.0194 68.4211 88.9861 68.2565C88.9433 68.0447 88.9287 67.7906 88.9422 67.494C88.9636 67.1959 89.0069 66.8852 89.0721 66.5618C89.1358 66.2307 89.2207 65.9238 89.3268 65.6411C89.4392 65.3491 89.5697 65.1064 89.7183 64.9132C89.8654 64.712 90.0252 64.594 90.1977 64.5592C90.3545 64.5275 90.5021 64.5711 90.6404 64.6901C90.785 64.7996 90.8747 64.9406 90.9096 65.1131C90.9302 65.2151 90.9319 65.3045 90.9148 65.3814C90.8961 65.4505 90.8672 65.489 90.828 65.4969C90.7966 65.5033 90.7644 65.4853 90.7314 65.443C90.6165 65.2785 90.5041 65.1665 90.3941 65.1071C90.292 65.0461 90.1939 65.0252 90.0998 65.0442C89.943 65.0759 89.8044 65.1977 89.684 65.4098C89.5699 65.6124 89.4888 65.8369 89.4406 66.0834C89.3971 66.2717 89.3646 66.4946 89.3431 66.7519C89.328 66.9998 89.3206 67.2462 89.3211 67.4909C89.3278 67.7263 89.3463 67.9184 89.3764 68.0674C89.4303 68.334 89.5199 68.4546 89.6454 68.4293C89.8022 68.3976 89.9673 68.1847 90.1407 67.7905C90.2703 67.5031 90.3724 67.1805 90.447 66.8226C90.5295 66.4632 90.5971 66.1516 90.6499 65.8879C90.6732 65.8016 90.7061 65.7419 90.7484 65.7089C90.7907 65.6759 90.8314 65.6554 90.8706 65.6474C90.9647 65.6284 91.0315 65.6558 91.0708 65.7294C91.118 65.8015 91.1472 65.865 91.1583 65.9199C91.1995 66.1237 91.2171 66.312 91.2112 66.4846C91.2037 66.6493 91.2229 66.8454 91.2689 67.0728C91.3021 67.2375 91.3448 67.388 91.3969 67.5244C91.4552 67.6514 91.5196 67.7077 91.5902 67.6935C91.6764 67.676 91.764 67.5441 91.853 67.2976C91.8717 67.2285 91.9124 67.1876 91.9751 67.1749C92.0457 67.1607 92.0881 67.1888 92.1023 67.2594C92.1229 67.3613 92.0746 67.4854 91.9572 67.6315C91.8382 67.7698 91.7082 67.8532 91.567 67.8818C91.3788 67.9198 91.2297 67.8683 91.1196 67.7274C90.934 67.4955 90.8206 67.2777 90.7794 67.0738C90.7366 66.8621 90.7033 66.7178 90.6796 66.641C90.6595 66.743 90.6151 66.907 90.5465 67.1331C90.4763 67.3513 90.3889 67.5853 90.2843 67.8349C90.1781 68.0768 90.0578 68.2888 89.9232 68.4711C89.7886 68.6534 89.6508 68.7587 89.5096 68.7873ZM93.6105 70.0153C93.5321 70.0311 93.4394 69.9968 93.3326 69.9123C93.2352 69.834 93.1337 69.7158 93.0283 69.5575C92.8536 69.299 92.7111 69.0177 92.6006 68.7135C92.4918 68.4172 92.4056 68.1122 92.3422 67.7986C92.2725 67.4535 92.2279 67.1116 92.2084 66.7727C92.1889 66.4339 92.1796 66.1256 92.1806 65.8479C92.1818 65.6518 92.1885 65.4423 92.2006 65.2195C92.2127 64.9967 92.2296 64.8178 92.2512 64.6828C92.2058 64.7002 92.1368 64.7427 92.0444 64.8103C91.952 64.878 91.8556 64.9464 91.7553 65.0157C91.6629 65.0833 91.5775 65.1251 91.4991 65.1409C91.3815 65.1647 91.3092 65.1099 91.2822 64.9766C91.268 64.906 91.2788 64.8386 91.3148 64.7742C91.3586 64.7082 91.4165 64.6516 91.4886 64.6044C91.6312 64.5021 91.7934 64.4163 91.9752 64.3469C92.1555 64.2696 92.273 64.2051 92.3278 64.1532L92.4768 63.3151C92.4923 63.2303 92.5218 63.0938 92.5654 62.9054C92.6152 62.7076 92.6744 62.4957 92.7429 62.2696C92.8194 62.042 92.8958 61.8347 92.9723 61.6479C93.0332 61.505 93.0958 61.3903 93.1599 61.3039C93.2225 61.2096 93.3008 61.153 93.3949 61.134C93.536 61.1054 93.6177 61.1461 93.6399 61.2558C93.6526 61.3186 93.6441 61.4182 93.6146 61.5548C93.5929 61.6898 93.536 61.8726 93.4439 62.1035C93.3425 62.3688 93.2371 62.635 93.1278 62.9019C93.0248 63.1594 92.9437 63.4247 92.8847 63.6978C92.8832 63.7308 92.8739 63.7857 92.8568 63.8626C92.8459 63.9301 92.8342 63.9733 92.8217 63.9921L93.0498 63.9093C93.111 63.8888 93.1808 63.8706 93.2592 63.8548C93.336 63.8311 93.4215 63.8097 93.5156 63.7907C93.6489 63.7638 93.7759 63.7463 93.8967 63.7382C94.0238 63.7207 94.1297 63.7197 94.2144 63.7352C94.2568 63.7429 94.296 63.7554 94.3322 63.7726C94.3745 63.7803 94.3973 63.7921 94.4005 63.8078C94.4068 63.8391 94.3081 63.8754 94.1042 63.9166C93.9866 63.9404 93.8219 63.9941 93.6103 64.0776C93.4065 64.1596 93.1761 64.2715 92.9191 64.4132C92.7937 64.4794 92.7146 64.5525 92.6818 64.6326C92.649 64.7126 92.6204 64.8939 92.5958 65.1764C92.5638 65.6236 92.5521 66.0503 92.5608 66.4567C92.5678 66.8552 92.5922 67.2583 92.6338 67.6662C92.6418 67.7462 92.6506 67.8301 92.6602 67.9179C92.6776 68.0042 92.6966 68.0983 92.7173 68.2002C92.7711 68.4668 92.8509 68.7405 92.9566 69.0211C93.0701 69.3001 93.1993 69.5352 93.344 69.7263C93.377 69.7686 93.4093 69.807 93.4407 69.8414C93.48 69.8743 93.5208 69.8946 93.5632 69.9024C93.6228 69.9148 93.6558 69.9367 93.6622 69.9681C93.6669 69.9916 93.6497 70.0073 93.6105 70.0153ZM95.5862 69.616C95.5078 69.6318 95.4151 69.5975 95.3083 69.513C95.2108 69.4347 95.1094 69.3165 95.004 69.1582C94.8293 68.8997 94.6867 68.6184 94.5763 68.3142C94.4674 68.0179 94.3813 67.7129 94.3179 67.3993C94.2482 67.0543 94.2036 66.7123 94.1841 66.3735C94.1646 66.0346 94.1553 65.7263 94.1563 65.4486C94.1575 65.2525 94.1641 65.0431 94.1762 64.8202C94.1883 64.5974 94.2052 64.4185 94.2269 64.2836C94.1815 64.3009 94.1125 64.3434 94.0201 64.4111C93.9277 64.4787 93.8313 64.5472 93.731 64.6164C93.6386 64.684 93.5532 64.7258 93.4748 64.7416C93.3571 64.7654 93.2849 64.7106 93.2579 64.5773C93.2437 64.5068 93.2545 64.4393 93.2905 64.3749C93.3343 64.3089 93.3922 64.2523 93.4643 64.2051C93.6068 64.1028 93.769 64.017 93.9509 63.9476C94.1312 63.8703 94.2487 63.8058 94.3035 63.7539L94.4524 62.9158C94.468 62.831 94.4975 62.6945 94.5411 62.5061C94.5909 62.3083 94.6501 62.0964 94.7186 61.8703C94.795 61.6427 94.8715 61.4354 94.948 61.2486C95.0089 61.1057 95.0714 60.991 95.1356 60.9046C95.1982 60.8103 95.2765 60.7537 95.3706 60.7347C95.5117 60.7062 95.5934 60.7468 95.6156 60.8566C95.6283 60.9193 95.6198 61.0189 95.5903 61.1555C95.5686 61.2905 95.5117 61.4734 95.4196 61.7042C95.3182 61.9695 95.2128 62.2357 95.1035 62.5026C95.0005 62.7601 94.9194 63.0254 94.8604 63.2986C94.8589 63.3315 94.8496 63.3864 94.8324 63.4634C94.8216 63.5308 94.8099 63.574 94.7974 63.5929L95.0255 63.51C95.0867 63.4895 95.1564 63.4713 95.2349 63.4555C95.3117 63.4318 95.3972 63.4104 95.4913 63.3914C95.6246 63.3645 95.7516 63.347 95.8724 63.3389C95.9994 63.3214 96.1053 63.3204 96.1901 63.3359C96.2325 63.3436 96.2717 63.3561 96.3078 63.3733C96.3502 63.3811 96.373 63.3928 96.3762 63.4085C96.3825 63.4398 96.2837 63.4761 96.0799 63.5173C95.9622 63.5411 95.7976 63.5948 95.586 63.6784C95.3822 63.7603 95.1518 63.8722 94.8947 64.0139C94.7694 64.0801 94.6903 64.1532 94.6575 64.2333C94.6247 64.3134 94.5961 64.4946 94.5715 64.7771C94.5395 65.2243 94.5278 65.6511 94.5364 66.0574C94.5435 66.4559 94.5679 66.8591 94.6095 67.2669C94.6175 67.3469 94.6263 67.4308 94.6359 67.5187C94.6533 67.6049 94.6723 67.699 94.6929 67.801C94.7468 68.0676 94.8266 68.3412 94.9323 68.6218C95.0458 68.9008 95.1749 69.1359 95.3197 69.327C95.3527 69.3693 95.3849 69.4077 95.4164 69.4422C95.4557 69.475 95.4965 69.4953 95.5389 69.5031C95.5985 69.5155 95.6315 69.5374 95.6379 69.5688C95.6426 69.5923 95.6254 69.6081 95.5862 69.616ZM97.2359 67.4829C96.9537 67.5399 96.6734 67.4252 96.3951 67.1386C96.1231 66.8427 95.9142 66.334 95.7684 65.6125C95.6733 65.1421 95.656 64.7538 95.7166 64.4477C95.7756 64.1338 95.8779 63.8928 96.0234 63.7246C96.169 63.5564 96.3202 63.4565 96.477 63.4248C96.6339 63.3931 96.7783 63.4211 96.9102 63.5087C97.0406 63.5884 97.1256 63.7263 97.1652 63.9223C97.2033 64.1105 97.1888 64.3216 97.1218 64.5555C97.0532 64.7816 96.9579 64.9967 96.836 65.2009C96.7203 65.3957 96.5935 65.5356 96.4556 65.6206C96.4274 65.6426 96.3898 65.6584 96.3427 65.6679C96.3113 65.6742 96.2933 65.6656 96.2885 65.6421C96.2758 65.5794 96.3243 65.4961 96.4339 65.3923C96.5686 65.2509 96.6843 65.0561 96.7811 64.808C96.8762 64.5521 96.9064 64.3379 96.8715 64.1653C96.8509 64.0634 96.8116 63.9897 96.7534 63.9444C96.6937 63.8911 96.6325 63.8709 96.5697 63.8835C96.4521 63.9073 96.3417 64.0276 96.2386 64.2443C96.1418 64.4516 96.1072 64.785 96.1347 65.2447C96.1444 65.3733 96.1533 65.498 96.1614 65.6188C96.1757 65.7302 96.194 65.8408 96.2162 65.9505C96.3049 66.3897 96.4413 66.7212 96.6253 66.9452C96.8078 67.1613 97.0088 67.2472 97.2283 67.2029C97.4165 67.1648 97.6061 67.0123 97.7969 66.7452C97.9862 66.4702 98.1462 66.0706 98.277 65.5463C98.3065 65.4097 98.3565 65.3343 98.4271 65.3201C98.4742 65.3106 98.504 65.3372 98.5167 65.3999C98.5278 65.4548 98.524 65.5168 98.5053 65.5859C98.4029 66.1289 98.2343 66.567 97.9996 66.9001C97.765 67.2332 97.5104 67.4274 97.2359 67.4829Z" fill="black"/>
<path d="M70.1582 45.5163C70.0601 45.5361 69.9685 45.4866 69.8833 45.3678C69.7994 45.2555 69.7265 45.1138 69.6647 44.9426C69.5964 44.7728 69.5471 44.6127 69.5167 44.4625C69.5022 44.3906 69.4843 44.2854 69.4631 44.1468C69.4419 44.0083 69.422 43.8593 69.4034 43.6998C69.3847 43.5403 69.3681 43.3906 69.3534 43.2508C69.3388 43.1109 69.3274 43.0044 69.3194 42.9312C69.2885 42.4749 69.2902 42.0291 69.3246 41.5937C69.3577 41.1517 69.4026 40.7175 69.4592 40.2912C69.4631 40.2768 69.4657 40.2559 69.467 40.2284C69.4747 40.1996 69.4819 40.1846 69.4884 40.1832L69.4825 40.1538C69.4224 40.1932 69.35 40.2724 69.2653 40.3916C69.1871 40.5094 69.1304 40.5991 69.0952 40.6606C69.0587 40.7156 69.0261 40.7732 68.9975 40.8334C68.9675 40.887 68.9264 40.9192 68.8741 40.9297C68.8219 40.9403 68.7898 40.9162 68.7779 40.8574C68.7634 40.7855 68.7881 40.7057 68.8519 40.6179C68.908 40.525 68.9751 40.4366 69.0534 40.3528C69.1304 40.2624 69.2152 40.1773 69.3078 40.0973C69.407 40.0161 69.4769 39.9577 69.5173 39.9224C69.5343 39.9053 69.5441 39.8863 69.5466 39.8654C69.5557 39.8432 69.5616 39.8216 69.5642 39.8007C69.5954 39.7195 69.6272 39.6417 69.6598 39.5671C69.6989 39.4912 69.7582 39.4316 69.8379 39.3883C69.898 39.3829 69.966 39.3828 70.0419 39.3879C70.1177 39.3929 70.1694 39.4301 70.197 39.4993C70.2023 39.5255 70.2115 39.5372 70.2245 39.5346L70.2265 39.5444C70.2592 39.5378 70.2977 39.5266 70.3422 39.5108C70.3918 39.4872 70.4493 39.4688 70.5146 39.4555C70.7695 39.404 70.9885 39.4278 71.1718 39.5268C71.355 39.6258 71.4684 39.7831 71.512 39.9987C71.5529 40.2013 71.5384 40.4321 71.4683 40.6911C71.3969 40.9436 71.3071 41.1556 71.1989 41.3271C71.0269 41.5863 70.8365 41.822 70.6277 42.0343C70.4241 42.2386 70.2374 42.358 70.0675 42.3923C69.963 42.4134 69.8851 42.3986 69.8341 42.3477C69.7908 42.302 69.7613 42.24 69.7454 42.1615C69.723 42.0505 69.7495 41.9295 69.8251 41.7986C69.9007 41.6677 69.9795 41.5531 70.0617 41.4549C70.1543 41.341 70.2515 41.2329 70.3533 41.1307C70.4616 41.0272 70.5529 40.9407 70.6273 40.8713C70.6664 40.8294 70.703 40.7914 70.7369 40.7573C70.7774 40.7219 70.8139 40.7009 70.8466 40.6943C70.8662 40.6904 70.878 40.6982 70.882 40.7178C70.8846 40.7309 70.852 40.7715 70.7841 40.8396C70.7228 40.9064 70.67 40.9647 70.6256 41.0145C70.593 41.055 70.5363 41.1277 70.4555 41.2325C70.3733 41.3307 70.2872 41.4433 70.1973 41.5703C70.1125 41.6895 70.0415 41.8092 69.9842 41.9296C69.9269 42.05 69.9062 42.1495 69.9221 42.2279C70.0266 42.2067 70.1324 42.1412 70.2394 42.0311C70.3516 41.9132 70.4579 41.7829 70.5583 41.6402C70.6652 41.4962 70.7565 41.3757 70.8321 41.2788C70.9012 41.1832 70.9807 41.0549 71.0706 40.8939C71.1605 40.7329 71.2353 40.5648 71.2951 40.3894C71.3549 40.2141 71.3716 40.0611 71.3452 39.9304C71.3108 39.7605 71.2204 39.6496 71.0738 39.5976C70.9325 39.5377 70.7736 39.5256 70.5972 39.5613C70.5384 39.5732 70.4646 39.5949 70.3757 39.6264C70.2869 39.658 70.234 39.6823 70.217 39.6993C70.1182 39.9506 70.0265 40.2037 69.942 40.4589C69.8576 40.714 69.7842 40.9737 69.722 41.2379C69.6183 41.6669 69.5518 42.0953 69.5226 42.5228C69.4999 42.9491 69.5198 43.4008 69.5822 43.8779C69.5981 43.9903 69.6121 44.1099 69.6241 44.2367C69.6427 44.3622 69.6677 44.4863 69.6994 44.6092C69.7191 44.6732 69.7533 44.7751 69.802 44.9149C69.8506 45.0547 69.9097 45.1788 69.9792 45.2872C70.0487 45.3955 70.1227 45.4418 70.2011 45.426C70.2076 45.4246 70.2207 45.422 70.2403 45.418C70.2599 45.4141 70.2704 45.4154 70.2717 45.4219L70.2777 45.4513C70.2372 45.4867 70.1974 45.5083 70.1582 45.5163ZM72.8605 41.7769C72.6252 41.8244 72.3917 41.7288 72.1598 41.49C71.9331 41.2433 71.759 40.8194 71.6375 40.2182C71.5583 39.8262 71.5439 39.5026 71.5944 39.2475C71.6435 38.986 71.7287 38.7851 71.85 38.6449C71.9714 38.5048 72.0974 38.4215 72.228 38.3951C72.3587 38.3687 72.4791 38.392 72.589 38.465C72.6977 38.5315 72.7685 38.6464 72.8015 38.8097C72.8332 38.9666 72.8212 39.1424 72.7653 39.3374C72.7082 39.5257 72.6288 39.705 72.5272 39.8752C72.4307 40.0375 72.3251 40.1541 72.2102 40.2249C72.1867 40.2433 72.1553 40.2564 72.1161 40.2643C72.09 40.2696 72.0749 40.2625 72.071 40.2429C72.0604 40.1906 72.1008 40.1212 72.1921 40.0347C72.3043 39.9168 72.4008 39.7545 72.4814 39.5478C72.5607 39.3345 72.5859 39.156 72.5568 39.0122C72.5396 38.9273 72.5068 38.8659 72.4584 38.8281C72.4086 38.7837 72.3576 38.7668 72.3053 38.7774C72.2073 38.7972 72.1153 38.8974 72.0294 39.078C71.9487 39.2507 71.9198 39.5286 71.9428 39.9117C71.9509 40.0189 71.9583 40.1228 71.965 40.2235C71.977 40.3163 71.9922 40.4084 72.0107 40.4999C72.0846 40.8658 72.1983 41.1421 72.3516 41.3288C72.5037 41.5089 72.6712 41.5805 72.8541 41.5435C73.011 41.5118 73.1689 41.3846 73.328 41.1621C73.4857 40.9329 73.619 40.5999 73.728 40.163C73.7526 40.0492 73.7943 39.9864 73.8531 39.9745C73.8923 39.9666 73.9172 39.9888 73.9278 40.041C73.937 40.0868 73.9339 40.1384 73.9183 40.196C73.8329 40.6485 73.6924 41.0136 73.4969 41.2912C73.3013 41.5687 73.0892 41.7306 72.8605 41.7769Z" fill="black"/>
</svg>
